# AST/ASF file generated using VICON BodyLanguage
# -----------------------------------------------
:version 1.10
:name VICON
:units
  mass 1.0
  length 0.45
  angle deg
:documentation
   .ast/.asf automatically generated from VICON data using
   VICON BodyBuilder and BodyLanguage model FoxedUp or BRILLIANT.MOD
:root
   order TX TY TZ RX RY RZ
   axis XYZ
   position 0 0 0  
   orientation 0 0 0 
:bonedata
  begin
     id 1 
     name lhipjoint
     direction 0.722297 -0.617336 0.311742 
     length 2.6635 
     axis 0 0 0  XYZ
  end
  begin
     id 2 
     name lfemur
     direction 0.34202 -0.939693 0  
     length 7.39349  
     axis 0 0 20  XYZ
    dof rx ry rz
    limits (-160.0 20.0)
           (-70.0 70.0)
           (-60.0 70.0)
  end
  begin
     id 3 
     name ltibia
     direction 0.34202 -0.939693 0   
     length 7.36294   
     axis 0 0 20   XYZ
    dof rx
    limits (-10.0 170.0)
  end
  begin
     id 4 
     name lfoot
     direction 0.104879 -0.288152 0.951824   
     length 2.16981   
     axis -90 7.62852e-016 20   XYZ
    dof rx rz
    limits (-45.0 90.0)
           (-70.0 20.0)
  end
  begin
     id 5 
     name ltoes
     direction 1.53586e-011 -4.21895e-011 1   
     length 1.08218   
     axis -90 7.62852e-016 20   XYZ
    dof rx
    limits (-90.0 20.0)
  end
  begin
     id 6 
     name rhipjoint
     direction -0.75102 -0.589393 0.297631   
     length 2.78977  
     axis 0 0 0  XYZ 
  end
  begin
     id 7 
     name rfemur
     direction -0.34202 -0.939693 0   
     length 7.46076   
     axis 0 0 -20   XYZ
    dof rx ry rz
    limits (-160.0 20.0)
           (-70.0 70.0)
           (-70.0 60.0)
  end
  begin
     id 8 
     name rtibia
     direction -0.34202 -0.939693 0   
     length 7.31726   
     axis 0 0 -20   XYZ
    dof rx
    limits (-10.0 170.0)
 end
 begin
     id 9 
     name rfoot
     direction -0.107991 -0.296704 0.948844   
     length 2.09388  
     axis -90 -7.62852e-016 -20   XYZ
    dof rx rz
    limits (-45.0 90.0)
           (-20.0 70.0)
  end
  begin
     id 10 
     name rtoes
     direction -1.53559e-011 -4.21911e-011 1   
     length 1.04433   
     axis -90 -7.62852e-016 -20   XYZ
    dof rx
    limits (-90.0 20.0)
  end
  begin
     id 11 
     name lowerback
     direction 0.0165164 0.98272 0.184358   
     length 1.71896   
     axis 0 0 0   XYZ
    dof rx ry rz
    limits (-20.0 45.0)
           (-30.0 30.0)
           (-30.0 30.0)
  end
  begin
     id 12 
     name upperback
     direction -0.00887249 0.992297 0.123566   
     length 1.71504   
     axis 0 0 0   XYZ
    dof rx ry rz
    limits (-20.0 45.0)
           (-30.0 30.0)
           (-30.0 30.0)
  end
  begin
     id 13 
     name thorax
     direction -0.0157026 0.998908 0.0440032   
     length 1.77022   
     axis 0 0 0   XYZ
    dof rx ry rz
    limits (-20.0 45.0)
           (-30.0 30.0)
           (-30.0 30.0)
  end
  begin
     id 14 
     name lowerneck
     direction -0.0238856 0.998137 0.0561411   
     length 1.89341   
     axis 0 0 0   XYZ
    dof rx ry rz
    limits (-20.0 45.0)
           (-30.0 30.0)
           (-30.0 30.0)
  end
  begin
     id 15 
     name upperneck
     direction 0.0276574 0.952253 -0.304056   
     length 1.86999   
     axis 0 0 0   XYZ
    dof rx ry rz
    limits (-20.0 45.0)
           (-30.0 30.0)
           (-30.0 30.0)
  end
  begin
     id 16
     name head
     direction 0.00800083 0.994258 -0.106712  
     length 1.91492  
     axis 0 0 0   XYZ
    dof rx ry rz
    limits (-20.0 45.0)
           (-30.0 30.0)
           (-30.0 30.0)
  end
  begin
     id 17 
     name lclavicle
     direction 0.97203 0.225407 0.06595  
     length 3.34889  
     axis 0 0 0   XYZ
    dof ry rz
    limits (-20.0 10.0)
           (0.0 20.0)
  end
  begin
     id 18 
     name lhumerus
     direction 1 -4.48973e-011 2.20267e-027   
     length 4.85645   
     axis 180 -30 -90   XYZ
    dof rx ry rz
    limits (-60.0 90.0)
           (-90.0 90.0)
           (-90.0 90.0)
  end
  begin
     id 19
     name lradius
     direction 1 -4.4897e-011 4.60472e-027   
     length 2.79874   
     axis 180 -30 -90   XYZ
    dof rx
    limits (-10.0 170.0)
  end
  begin
     id 20
     name lwrist
     direction 1 -4.48952e-011 1.14928e-026   
     length 1.39937   
     axis -6.29373e-015 90 90   XYZ
    dof ry
    limits (-180.0 0.0)
 end
  begin
     id 21 
     name lhand
     direction 1 -4.48967e-011 2.29886e-026   
     length 0.573398   
     axis -1.46689e-014 90 90   XYZ
    dof rx rz
    limits (-90.0 90.0)
           (-45.0 45.0)
  end
  begin
     id 22 
     name lfingers
     direction 1 -4.48955e-011 4.59726e-026   
     length 0.462289   
     axis -2.93383e-014 90 90   XYZ
    dof rx
    limits (0.0 90.0)
  end
  begin
     id 23
     name lthumb
     direction 0.707107 -6.34866e-011 0.707107   
     length 0.663757   
     axis -90 45 5.69224e-014   XYZ
    dof rx rz
    limits (-45.0 45.0)
           (-45.0 45.0)
  end
  begin
     id 24 
     name rclavicle
     direction -0.981571 0.157346 0.108443   
     length 3.35257  
     axis 0 0 0   XYZ 
    dof ry rz
    limits (-10.0 20.0)
           (-20.0 0.0)
  end
  begin
     id 25 
     name rhumerus
     direction -1 -4.48967e-011 8.58308e-029  
     length 4.67018   
     axis 180 30 90   XYZ
    dof rx ry rz
    limits (-90.0 60.0)
           (-90.0 90.0)
           (-90.0 90.0)
  end
  begin
     id 26 
     name rradius
     direction -1 -4.48958e-011 4.52548e-027   
     length 2.65534   
     axis 180 30 90   XYZ
    dof rx
    limits (-10.0 170.0)
  end
  begin
     id 27 
     name rwrist
     direction -1 -4.48977e-011 1.14952e-026   
     length 1.32767   
     axis -6.29373e-015 -90 -90   XYZ
    dof ry
    limits (-180.0 0.0)
  end
  begin
     id 28
     name rhand
     direction -1 -4.48924e-011 2.29804e-026   
     length 0.594069   
     axis -1.46689e-014 -90 -90   XYZ
    dof rx rz
    limits (-90.0 90.0)
           (-45.0 45.0)
  end
  begin
     id 29
     name rfingers
     direction -1 -4.48998e-011 4.59888e-026   
     length 0.478954   
     axis -2.93383e-014 -90 -90   XYZ
    dof rx
    limits (0.0 90.0)
  end
  begin
     id 30
     name rthumb
     direction -0.707107 -6.34933e-011 0.707107   
     length 0.687685   
     axis -90 -45 -5.69224e-014   XYZ
    dof rx rz
    limits (-45.0 45.0)
           (-45.0 45.0)
  end
:hierarchy
  begin
    root lhipjoint rhipjoint lowerback
    lhipjoint lfemur
    lfemur ltibia
    ltibia lfoot
    lfoot ltoes
    rhipjoint rfemur
    rfemur rtibia
    rtibia rfoot
    rfoot rtoes
    lowerback upperback
    upperback thorax
    thorax lowerneck lclavicle rclavicle
    lowerneck upperneck
    upperneck head
    lclavicle lhumerus
    lhumerus lradius
    lradius lwrist
    lwrist lhand lthumb
    lhand lfingers
    rclavicle rhumerus
    rhumerus rradius
    rradius rwrist
    rwrist rhand rthumb
    rhand rfingers
  end

#!OML:ASF E:\pregnant2\Project 1\Capture day 1\Session 1\pregnant2.ASF
:FULLY-SPECIFIED
:DEGREES
588
root 5.23183 17.3522 -27.2973 39.7577 19.3301 357.367
lowerback -23.1567 -2.01598 -3.40639
upperback -18.6184 -1.67712 0.943939
thorax -7.81755 -0.235106 2.65516
lowerneck -14.6068 -7.02154 -9.73831
upperneck 30.2739 -8.47848 3.37073
head 13.1829 -4.40966 1.62264
rclavicle -7.51406e-014 -9.54166e-015
rhumerus -48.7431 -6.26374 -71.152
rradius 31.4404
rwrist 2.07687
rhand -13.5024 -25.052
rfingers 7.12502
rthumb 12.6089 -54.6515
lclavicle -7.51406e-014 -9.54166e-015
lhumerus -51.881 -5.67765 81.2952
lradius 50.2284
lwrist -14.1708
lhand -25.21 31.8813
lfingers 7.12502
lthumb 1.30879 61.857
rfemur -66.0335 8.39594 12.4055
rtibia 29.0876
rfoot -8.81752 -17.9453
rtoes 4.90661
lfemur -43.4752 -6.80441 -20.9446
ltibia 24.4943
lfoot -18.9712 35.1073
ltoes -1.98264
589
root 5.22579 17.353 -27.2694 39.8027 18.6792 357.366
lowerback -23.2624 -1.994 -3.45144
upperback -18.5954 -1.64992 0.906439
thorax -7.74083 -0.226366 2.64218
lowerneck -14.8238 -6.88715 -9.46541
upperneck 30.214 -8.25364 3.11549
head 13.1561 -4.31071 1.51019
rclavicle -6.95746e-016 3.97569e-015
rhumerus -48.8688 -6.24612 -71.1026
rradius 31.7503
rwrist 1.65972
rhand -13.8207 -25.1717
rfingers 7.12502
rthumb 12.302 -54.7898
lclavicle -6.95746e-016 3.97569e-015
lhumerus -51.5696 -5.95381 81.9178
lradius 50.7812
lwrist -14.4347
lhand -25.4033 31.5726
lfingers 7.12502
lthumb 1.12201 61.5494
rfemur -65.8693 8.20482 12.779
rtibia 28.9096
rfoot -8.91611 -18.5242
rtoes 5.299
lfemur -43.2368 -6.84333 -20.9971
ltibia 24.2493
lfoot -19.0888 35.6424
ltoes -1.77874
590
root 5.21932 17.3536 -27.2396 39.8457 18.0521 357.367
lowerback -23.3595 -1.97628 -3.49446
upperback -18.5761 -1.6285 0.869724
thorax -7.67255 -0.220393 2.62824
lowerneck -15.0165 -6.74776 -9.18739
upperneck 30.1351 -8.0301 2.87193
head 13.1181 -4.21073 1.40224
rclavicle -1.2921e-015 -2.3059e-014
rhumerus -48.9977 -6.2168 -71.0736
rradius 32.0721
rwrist 1.37806
rhand -14.0504 -25.3504
rfingers 7.12502
rthumb 12.0805 -54.9817
lclavicle -1.2921e-015 -2.3059e-014
lhumerus -51.2633 -6.26502 82.5556
lradius 51.3251
lwrist -14.7256
lhand -25.6031 31.2019
lfingers 7.12502
lthumb 0.929121 61.1796
rfemur -65.6919 8.01356 13.1639
rtibia 28.7346
rfoot -9.00807 -18.989
rtoes 5.58481
lfemur -42.9923 -6.89051 -21.041
ltibia 24.0071
lfoot -19.2883 36.1598
ltoes -1.45201
591
root 5.21243 17.3541 -27.208 39.8925 17.4457 357.37
lowerback -23.4182 -1.96087 -3.52362
upperback -18.576 -1.61395 0.828517
thorax -7.64621 -0.218518 2.60139
lowerneck -15.2147 -6.59668 -8.92108
upperneck 30.0671 -7.79963 2.66604
head 13.0892 -4.10423 1.31196
rclavicle -1.99779e-014 -1.63003e-014
rhumerus -49.1407 -6.16773 -71.0849
rradius 32.4084
rwrist 1.23102
rhand -14.2105 -25.4568
rfingers 7.12502
rthumb 11.9261 -55.0971
lclavicle -1.99779e-014 -1.63003e-014
lhumerus -50.9587 -6.58395 83.1802
lradius 51.8289
lwrist -15.081
lhand -25.8046 30.8268
lfingers 7.12502
lthumb 0.73447 60.8053
rfemur -65.5095 7.82131 13.5565
rtibia 28.568
rfoot -9.09191 -19.3456
rtoes 5.77442
lfemur -42.7504 -6.91015 -21.0998
ltibia 23.7731
lfoot -19.4882 36.6365
ltoes -1.16284
592
root 5.20496 17.3536 -27.1748 39.9504 16.8549 357.378
lowerback -23.4618 -1.95333 -3.55463
upperback -18.5924 -1.60977 0.789978
thorax -7.64674 -0.2206 2.57728
lowerneck -15.3937 -6.43174 -8.67038
upperneck 29.9974 -7.55914 2.49616
head 13.0589 -3.99076 1.2406
rclavicle -2.24627e-014 -2.10712e-014
rhumerus -49.2914 -6.08815 -71.1359
rradius 32.7532
rwrist 1.21568
rhand -14.3254 -25.5225
rfingers 7.12502
rthumb 11.8153 -55.1692
lclavicle -2.24627e-014 -2.10712e-014
lhumerus -50.6492 -6.89993 83.7982
lradius 52.2824
lwrist -15.5033
lhand -26.0234 30.5263
lfingers 7.12502
lthumb 0.523163 60.5054
rfemur -65.3342 7.64379 13.9307
rtibia 28.4132
rfoot -9.17078 -19.6163
rtoes 5.9068
lfemur -42.5265 -6.93971 -21.1548
ltibia 23.5606
lfoot -19.8154 37.0923
ltoes -0.672805
593
root 5.19695 17.3523 -27.14 40.0158 16.2762 357.385
lowerback -23.4824 -1.94663 -3.57966
upperback -18.6251 -1.60859 0.75197
thorax -7.67828 -0.223813 2.55048
lowerneck -15.5756 -6.25878 -8.44277
upperneck 29.9426 -7.31415 2.3655
head 13.0392 -3.87285 1.18888
rclavicle -2.46493e-014 -2.94201e-014
rhumerus -49.4694 -5.94604 -71.251
rradius 33.1446
rwrist 1.27607
rhand -14.4214 -25.533
rfingers 7.12502
rthumb 11.7228 -55.185
lclavicle -2.46493e-014 -2.94201e-014
lhumerus -50.3331 -7.22858 84.4175
lradius 52.6903
lwrist -15.9887
lhand -26.2493 30.3032
lfingers 7.12502
lthumb 0.304945 60.2827
rfemur -65.1649 7.49772 14.2778
rtibia 28.2756
rfoot -9.2324 -19.8229
rtoes 6.0031
lfemur -42.3212 -6.97332 -21.2037
ltibia 23.3772
lfoot -20.1943 37.5387
ltoes -0.150677
594
root 5.18845 17.3491 -27.1039 40.0978 15.7098 357.398
lowerback -23.4936 -1.94384 -3.60357
upperback -18.6683 -1.61304 0.715106
thorax -7.72704 -0.229344 2.52365
lowerneck -15.7721 -6.08318 -8.23939
upperneck 29.905 -7.06926 2.26877
head 13.0336 -3.75316 1.15377
rclavicle -5.06901e-015 7.95139e-016
rhumerus -49.6645 -5.73668 -71.4325
rradius 33.5849
rwrist 1.4037
rhand -14.545 -25.5621
rfingers 7.12502
rthumb 11.6035 -55.2209
lclavicle -5.06901e-015 7.95139e-016
lhumerus -50.0111 -7.58252 85.0436
lradius 53.0636
lwrist -16.5013
lhand -26.4746 30.143
lfingers 7.12502
lthumb 0.0873387 60.1227
rfemur -65.0146 7.38236 14.5826
rtibia 28.162
rfoot -9.2746 -19.9736
rtoes 6.09417
lfemur -42.1481 -7.0016 -21.2603
ltibia 23.2289
lfoot -20.6205 37.9583
ltoes 0.408202
595
root 5.1792 17.3447 -27.0668 40.187 15.1751 357.422
lowerback -23.511 -1.95171 -3.63724
upperback -18.7229 -1.62896 0.678507
thorax -7.78596 -0.238977 2.5007
lowerneck -15.9036 -5.90665 -8.04743
upperneck 29.8498 -6.83312 2.19427
head 13.0099 -3.63647 1.12966
rclavicle 2.72335e-014 6.36111e-015
rhumerus -49.9014 -5.46992 -71.6653
rradius 34.0667
rwrist 1.59437
rhand -14.5306 -25.8171
rfingers 7.12502
rthumb 11.6174 -55.475
lclavicle 2.72335e-014 6.36111e-015
lhumerus -49.7221 -8.00094 85.6961
lradius 53.4313
lwrist -17.02
lhand -26.6771 29.9784
lfingers 7.12502
lthumb -0.108228 59.9582
rfemur -64.8639 7.29549 14.8419
rtibia 28.0774
rfoot -9.32449 -20.0787
rtoes 6.19948
lfemur -41.9982 -6.98068 -21.3531
ltibia 23.1185
lfoot -20.9991 38.3095
ltoes 0.810407
596
root 5.16885 17.3393 -27.0273 40.2501 14.6893 357.46
lowerback -23.4891 -1.97027 -3.66791
upperback -18.7691 -1.66099 0.641466
thorax -7.85255 -0.257294 2.47349
lowerneck -16.061 -5.7435 -7.8556
upperneck 29.8055 -6.61357 2.11446
head 12.998 -3.52756 1.09989
rclavicle -2.60408e-014 2.78299e-014
rhumerus -50.1479 -5.15769 -71.9503
rradius 34.5868
rwrist 1.82955
rhand -14.5007 -25.9976
rfingers 7.12502
rthumb 11.6463 -55.6539
lclavicle -2.60408e-014 2.78299e-014
lhumerus -49.447 -8.49531 86.3721
lradius 53.8143
lwrist -17.5186
lhand -26.8607 29.804
lfingers 7.12502
lthumb -0.28557 59.7835
rfemur -64.6675 7.24822 15.054
rtibia 28.0278
rfoot -9.4234 -20.1659
rtoes 6.32717
lfemur -41.8314 -6.93855 -21.4628
ltibia 23.0465
lfoot -21.3409 38.611
ltoes 1.07153
597
root 5.15756 17.3328 -26.9855 40.2889 14.2515 357.511
lowerback -23.4467 -2.00969 -3.71648
upperback -18.8246 -1.71757 0.614895
thorax -7.93847 -0.284673 2.46434
lowerneck -16.1286 -5.5867 -7.65277
upperneck 29.7315 -6.40612 2.00859
head 12.9548 -3.4272 1.05868
rclavicle -1.09332e-014 2.14687e-014
rhumerus -50.4463 -4.77412 -72.2784
rradius 35.1414
rwrist 2.08654
rhand -14.4083 -26.1475
rfingers 7.12502
rthumb 11.7354 -55.7987
lclavicle -1.09332e-014 2.14687e-014
lhumerus -49.2491 -9.05957 87.0824
lradius 54.2318
lwrist -17.9873
lhand -27.0244 29.6746
lfingers 7.12502
lthumb -0.443644 59.6538
rfemur -64.4213 7.20227 15.2646
rtibia 28.0108
rfoot -9.56631 -20.1908
rtoes 6.45802
lfemur -41.6475 -6.80182 -21.6345
ltibia 23.0099
lfoot -21.5695 38.8052
ltoes 1.06672
598
root 5.14521 17.3251 -26.9415 40.3009 13.8575 357.581
lowerback -23.4107 -2.0648 -3.78951
upperback -18.8581 -1.7895 0.595659
thorax -7.99267 -0.317545 2.47413
lowerneck -16.1467 -5.44532 -7.45955
upperneck 29.6135 -6.21864 1.89272
head 12.8853 -3.33832 1.01324
rclavicle 1.74931e-014 2.94201e-014
rhumerus -50.7416 -4.34884 -72.6386
rradius 35.7161
rwrist 2.34345
rhand -14.3274 -26.1702
rfingers 7.12502
rthumb 11.8134 -55.817
lclavicle 1.74931e-014 2.94201e-014
lhumerus -49.0706 -9.69755 87.8263
lradius 54.646
lwrist -18.4814
lhand -27.2422 29.5028
lfingers 7.12502
lthumb -0.654012 59.4816
rfemur -64.1286 7.15606 15.4683
rtibia 28.021
rfoot -9.7626 -20.1662
rtoes 6.60814
lfemur -41.4411 -6.60134 -21.8547
ltibia 23.002
lfoot -21.7717 38.9096
ltoes 0.973987
599
root 5.13234 17.3166 -26.8959 40.3095 13.4955 357.657
lowerback -23.3589 -2.12262 -3.85387
upperback -18.8976 -1.8669 0.57739
thorax -8.06165 -0.353482 2.47972
lowerneck -16.1441 -5.31033 -7.27476
upperneck 29.4891 -6.03793 1.77083
head 12.8104 -3.25428 0.966224
rclavicle 2.32578e-014 2.22639e-014
rhumerus -51.0527 -3.87676 -73.0447
rradius 36.3095
rwrist 2.59296
rhand -14.2682 -26.0127
rfingers 7.12502
rthumb 11.8705 -55.6563
lclavicle 2.32578e-014 2.22639e-014
lhumerus -48.9213 -10.3874 88.5864
lradius 55.0333
lwrist -19.0034
lhand -27.4976 29.2058
lfingers 7.12502
lthumb -0.900655 59.1836
rfemur -63.8366 7.10645 15.6728
rtibia 28.0429
rfoot -9.9508 -20.1098
rtoes 6.7004
lfemur -41.2387 -6.31822 -22.1199
ltibia 23.0125
lfoot -21.8281 38.9405
ltoes 0.604575
